ISO-10303-21;
HEADER;
/* Generated by software containing ST-Developer
 * from STEP Tools, Inc. (www.steptools.com) 
 */
/* OPTION: using custom renumber hook */

FILE_DESCRIPTION(
/* description */ ('STEP AP242 Edition 2',
'CAx-IF Rec.Pracs.---Representation and Presentation of Product Manufa
cturing Information (PMI)---4.0---2014-10-13',
'CAx-IF Rec.Pracs.---3D Tessellated Geometry---0.4---2014-09-14','2;1',
'CAx-IF Rec.Pracs.---User Defined Attributes---1.5---2016-08-15'),
/* implementation_level */ '2;1');

FILE_NAME(
/* name */ 'Adapter collet',
/* time_stamp */ '2026-06-05T04:04:39Z',
/* author */ (''),
/* organization */ (''),
/* preprocessor_version */ 'ST-DEVELOPER v20',
/* originating_system */ 'ONSHAPE BY PTC INC, 1.215',
/* authorisation */ '  ');

FILE_SCHEMA (('AP242_MANAGED_MODEL_BASED_3D_ENGINEERING_MIM_LF { 1 0 10303 442 3 1 4 }'));
ENDSEC;

DATA;
#10=SHAPE_REPRESENTATION_RELATIONSHIP('','',#298,#11);
#11=ADVANCED_BREP_SHAPE_REPRESENTATION('',(#296),#528);
#12=B_SPLINE_CURVE_WITH_KNOTS('',3,(#424,#425,#426,#427),.UNSPECIFIED.,
 .F.,.F.,(4,4),(0.,1.),.UNSPECIFIED.);
#13=B_SPLINE_CURVE_WITH_KNOTS('',3,(#428,#429,#430,#431),.UNSPECIFIED.,
 .F.,.F.,(4,4),(0.,1.),.UNSPECIFIED.);
#14=B_SPLINE_CURVE_WITH_KNOTS('',3,(#435,#436,#437,#438),.UNSPECIFIED.,
 .F.,.F.,(4,4),(0.,1.),.UNSPECIFIED.);
#15=B_SPLINE_CURVE_WITH_KNOTS('',3,(#439,#440,#441,#442),.UNSPECIFIED.,
 .F.,.F.,(4,4),(0.,1.),.UNSPECIFIED.);
#16=B_SPLINE_CURVE_WITH_KNOTS('',3,(#444,#445,#446,#447),.UNSPECIFIED.,
 .F.,.F.,(4,4),(-0.364141369393175,1.),.UNSPECIFIED.);
#17=B_SPLINE_CURVE_WITH_KNOTS('',3,(#449,#450,#451,#452),.UNSPECIFIED.,
 .F.,.F.,(4,4),(6.2499999998798E-7,0.99999975),.UNSPECIFIED.);
#18=B_SPLINE_CURVE_WITH_KNOTS('',3,(#458,#459,#460,#461),.UNSPECIFIED.,
 .F.,.F.,(4,4),(0.,1.3641413693893),.UNSPECIFIED.);
#19=B_SPLINE_CURVE_WITH_KNOTS('',3,(#462,#463,#464,#465),.UNSPECIFIED.,
 .F.,.F.,(4,4),(0.549634307517069,1.),.UNSPECIFIED.);
#20=B_SPLINE_CURVE_WITH_KNOTS('',3,(#467,#468,#469,#470),.UNSPECIFIED.,
 .F.,.F.,(4,4),(0.,0.549634307517068),.UNSPECIFIED.);
#21=B_SPLINE_CURVE_WITH_KNOTS('',3,(#474,#475,#476,#477),.UNSPECIFIED.,
 .F.,.F.,(4,4),(0.45036569254848,1.),.UNSPECIFIED.);
#22=B_SPLINE_CURVE_WITH_KNOTS('',3,(#479,#480,#481,#482),.UNSPECIFIED.,
 .F.,.F.,(4,4),(0.,0.450365692615761),.UNSPECIFIED.);
#23=B_SPLINE_CURVE_WITH_KNOTS('',3,(#484,#485,#486,#487),.UNSPECIFIED.,
 .F.,.F.,(4,4),(-1.29867732471688,1.),.UNSPECIFIED.);
#24=B_SPLINE_CURVE_WITH_KNOTS('',3,(#489,#490,#491,#492),.UNSPECIFIED.,
 .F.,.F.,(4,4),(6.2499999998798E-7,0.99999975),.UNSPECIFIED.);
#25=B_SPLINE_CURVE_WITH_KNOTS('',3,(#496,#497,#498,#499),.UNSPECIFIED.,
 .F.,.F.,(4,4),(2.50000000085251E-7,0.999999375),.UNSPECIFIED.);
#26=B_SPLINE_CURVE_WITH_KNOTS('',3,(#501,#502,#503,#504),.UNSPECIFIED.,
 .F.,.F.,(4,4),(0.,2.29867732471619),.UNSPECIFIED.);
#27=B_SPLINE_CURVE_WITH_KNOTS('',3,(#505,#506,#507,#508),.UNSPECIFIED.,
 .F.,.F.,(4,4),(0.,1.),.UNSPECIFIED.);
#28=B_SPLINE_CURVE_WITH_KNOTS('',3,(#512,#513,#514,#515),.UNSPECIFIED.,
 .F.,.F.,(4,4),(0.,1.),.UNSPECIFIED.);
#29=CIRCLE('',#303,0.00235);
#30=CIRCLE('',#304,0.00235);
#31=CIRCLE('',#306,0.00205);
#32=CIRCLE('',#307,0.00205);
#33=CIRCLE('',#309,0.00155);
#34=CIRCLE('',#310,0.00155);
#35=CIRCLE('',#314,0.00154536675039548);
#36=CIRCLE('',#316,0.00154536675039521);
#37=CIRCLE('',#318,0.00204783890940127);
#38=CIRCLE('',#320,0.00204783890940159);
#39=CYLINDRICAL_SURFACE('',#302,0.00235);
#40=CYLINDRICAL_SURFACE('',#305,0.00205);
#41=CYLINDRICAL_SURFACE('',#308,0.00155);
#42=CYLINDRICAL_SURFACE('',#313,0.00154536675039548);
#43=CYLINDRICAL_SURFACE('',#315,0.00154536675039521);
#44=CYLINDRICAL_SURFACE('',#317,0.00204783890940127);
#45=CYLINDRICAL_SURFACE('',#319,0.00204783890940159);
#46=ORIENTED_EDGE('',*,*,#134,.F.);
#47=ORIENTED_EDGE('',*,*,#135,.T.);
#48=ORIENTED_EDGE('',*,*,#136,.T.);
#49=ORIENTED_EDGE('',*,*,#137,.F.);
#50=ORIENTED_EDGE('',*,*,#138,.T.);
#51=ORIENTED_EDGE('',*,*,#139,.T.);
#52=ORIENTED_EDGE('',*,*,#140,.T.);
#53=ORIENTED_EDGE('',*,*,#141,.F.);
#54=ORIENTED_EDGE('',*,*,#142,.F.);
#55=ORIENTED_EDGE('',*,*,#143,.T.);
#56=ORIENTED_EDGE('',*,*,#144,.T.);
#57=ORIENTED_EDGE('',*,*,#145,.F.);
#58=ORIENTED_EDGE('',*,*,#146,.T.);
#59=ORIENTED_EDGE('',*,*,#147,.F.);
#60=ORIENTED_EDGE('',*,*,#148,.F.);
#61=ORIENTED_EDGE('',*,*,#149,.T.);
#62=ORIENTED_EDGE('',*,*,#150,.T.);
#63=ORIENTED_EDGE('',*,*,#151,.F.);
#64=ORIENTED_EDGE('',*,*,#148,.T.);
#65=ORIENTED_EDGE('',*,*,#152,.T.);
#66=ORIENTED_EDGE('',*,*,#153,.F.);
#67=ORIENTED_EDGE('',*,*,#154,.F.);
#68=ORIENTED_EDGE('',*,*,#140,.F.);
#69=ORIENTED_EDGE('',*,*,#155,.T.);
#70=ORIENTED_EDGE('',*,*,#156,.T.);
#71=ORIENTED_EDGE('',*,*,#157,.T.);
#72=ORIENTED_EDGE('',*,*,#158,.T.);
#73=ORIENTED_EDGE('',*,*,#159,.F.);
#74=ORIENTED_EDGE('',*,*,#160,.F.);
#75=ORIENTED_EDGE('',*,*,#142,.T.);
#76=ORIENTED_EDGE('',*,*,#161,.F.);
#77=ORIENTED_EDGE('',*,*,#162,.T.);
#78=ORIENTED_EDGE('',*,*,#163,.F.);
#79=ORIENTED_EDGE('',*,*,#164,.F.);
#80=ORIENTED_EDGE('',*,*,#165,.F.);
#81=ORIENTED_EDGE('',*,*,#138,.F.);
#82=ORIENTED_EDGE('',*,*,#166,.T.);
#83=ORIENTED_EDGE('',*,*,#167,.T.);
#84=ORIENTED_EDGE('',*,*,#168,.T.);
#85=ORIENTED_EDGE('',*,*,#169,.F.);
#86=ORIENTED_EDGE('',*,*,#170,.F.);
#87=ORIENTED_EDGE('',*,*,#134,.T.);
#88=ORIENTED_EDGE('',*,*,#171,.T.);
#89=ORIENTED_EDGE('',*,*,#172,.F.);
#90=ORIENTED_EDGE('',*,*,#173,.F.);
#91=ORIENTED_EDGE('',*,*,#146,.F.);
#92=ORIENTED_EDGE('',*,*,#162,.F.);
#93=ORIENTED_EDGE('',*,*,#161,.T.);
#94=ORIENTED_EDGE('',*,*,#149,.F.);
#95=ORIENTED_EDGE('',*,*,#151,.T.);
#96=ORIENTED_EDGE('',*,*,#150,.F.);
#97=ORIENTED_EDGE('',*,*,#155,.F.);
#98=ORIENTED_EDGE('',*,*,#139,.F.);
#99=ORIENTED_EDGE('',*,*,#165,.T.);
#100=ORIENTED_EDGE('',*,*,#164,.T.);
#101=ORIENTED_EDGE('',*,*,#163,.T.);
#102=ORIENTED_EDGE('',*,*,#171,.F.);
#103=ORIENTED_EDGE('',*,*,#141,.T.);
#104=ORIENTED_EDGE('',*,*,#154,.T.);
#105=ORIENTED_EDGE('',*,*,#153,.T.);
#106=ORIENTED_EDGE('',*,*,#152,.F.);
#107=ORIENTED_EDGE('',*,*,#147,.T.);
#108=ORIENTED_EDGE('',*,*,#173,.T.);
#109=ORIENTED_EDGE('',*,*,#172,.T.);
#110=ORIENTED_EDGE('',*,*,#135,.F.);
#111=ORIENTED_EDGE('',*,*,#170,.T.);
#112=ORIENTED_EDGE('',*,*,#169,.T.);
#113=ORIENTED_EDGE('',*,*,#174,.F.);
#114=ORIENTED_EDGE('',*,*,#167,.F.);
#115=ORIENTED_EDGE('',*,*,#166,.F.);
#116=ORIENTED_EDGE('',*,*,#145,.T.);
#117=ORIENTED_EDGE('',*,*,#175,.T.);
#118=ORIENTED_EDGE('',*,*,#143,.F.);
#119=ORIENTED_EDGE('',*,*,#160,.T.);
#120=ORIENTED_EDGE('',*,*,#159,.T.);
#121=ORIENTED_EDGE('',*,*,#176,.F.);
#122=ORIENTED_EDGE('',*,*,#157,.F.);
#123=ORIENTED_EDGE('',*,*,#156,.F.);
#124=ORIENTED_EDGE('',*,*,#137,.T.);
#125=ORIENTED_EDGE('',*,*,#177,.T.);
#126=ORIENTED_EDGE('',*,*,#177,.F.);
#127=ORIENTED_EDGE('',*,*,#136,.F.);
#128=ORIENTED_EDGE('',*,*,#174,.T.);
#129=ORIENTED_EDGE('',*,*,#168,.F.);
#130=ORIENTED_EDGE('',*,*,#175,.F.);
#131=ORIENTED_EDGE('',*,*,#144,.F.);
#132=ORIENTED_EDGE('',*,*,#176,.T.);
#133=ORIENTED_EDGE('',*,*,#158,.F.);
#134=EDGE_CURVE('',#178,#179,#212,.T.);
#135=EDGE_CURVE('',#178,#180,#213,.F.);
#136=EDGE_CURVE('',#180,#181,#214,.T.);
#137=EDGE_CURVE('',#182,#181,#215,.T.);
#138=EDGE_CURVE('',#182,#183,#216,.T.);
#139=EDGE_CURVE('',#183,#184,#217,.T.);
#140=EDGE_CURVE('',#184,#185,#218,.T.);
#141=EDGE_CURVE('',#179,#185,#219,.T.);
#142=EDGE_CURVE('',#186,#187,#220,.T.);
#143=EDGE_CURVE('',#186,#188,#221,.T.);
#144=EDGE_CURVE('',#188,#189,#222,.T.);
#145=EDGE_CURVE('',#190,#189,#223,.F.);
#146=EDGE_CURVE('',#190,#191,#224,.T.);
#147=EDGE_CURVE('',#192,#191,#225,.T.);
#148=EDGE_CURVE('',#193,#192,#226,.T.);
#149=EDGE_CURVE('',#193,#187,#227,.T.);
#150=EDGE_CURVE('',#194,#195,#29,.T.);
#151=EDGE_CURVE('',#193,#195,#12,.T.);
#152=EDGE_CURVE('',#192,#196,#13,.F.);
#153=EDGE_CURVE('',#197,#196,#30,.T.);
#154=EDGE_CURVE('',#185,#197,#14,.T.);
#155=EDGE_CURVE('',#184,#194,#15,.F.);
#156=EDGE_CURVE('',#182,#198,#16,.T.);
#157=EDGE_CURVE('',#198,#199,#17,.T.);
#158=EDGE_CURVE('',#199,#200,#31,.T.);
#159=EDGE_CURVE('',#201,#200,#228,.T.);
#160=EDGE_CURVE('',#186,#201,#18,.F.);
#161=EDGE_CURVE('',#202,#187,#19,.T.);
#162=EDGE_CURVE('',#202,#203,#20,.F.);
#163=EDGE_CURVE('',#204,#203,#32,.T.);
#164=EDGE_CURVE('',#205,#204,#21,.T.);
#165=EDGE_CURVE('',#183,#205,#22,.T.);
#166=EDGE_CURVE('',#190,#206,#23,.T.);
#167=EDGE_CURVE('',#206,#207,#24,.T.);
#168=EDGE_CURVE('',#207,#208,#33,.F.);
#169=EDGE_CURVE('',#209,#208,#25,.F.);
#170=EDGE_CURVE('',#178,#209,#26,.F.);
#171=EDGE_CURVE('',#179,#210,#27,.F.);
#172=EDGE_CURVE('',#211,#210,#34,.F.);
#173=EDGE_CURVE('',#191,#211,#28,.T.);
#174=EDGE_CURVE('',#180,#208,#35,.T.);
#175=EDGE_CURVE('',#189,#207,#36,.F.);
#176=EDGE_CURVE('',#188,#200,#37,.T.);
#177=EDGE_CURVE('',#181,#199,#38,.F.);
#178=VERTEX_POINT('',#388);
#179=VERTEX_POINT('',#389);
#180=VERTEX_POINT('',#391);
#181=VERTEX_POINT('',#393);
#182=VERTEX_POINT('',#395);
#183=VERTEX_POINT('',#397);
#184=VERTEX_POINT('',#399);
#185=VERTEX_POINT('',#401);
#186=VERTEX_POINT('',#405);
#187=VERTEX_POINT('',#406);
#188=VERTEX_POINT('',#408);
#189=VERTEX_POINT('',#410);
#190=VERTEX_POINT('',#412);
#191=VERTEX_POINT('',#414);
#192=VERTEX_POINT('',#416);
#193=VERTEX_POINT('',#418);
#194=VERTEX_POINT('',#422);
#195=VERTEX_POINT('',#423);
#196=VERTEX_POINT('',#432);
#197=VERTEX_POINT('',#434);
#198=VERTEX_POINT('',#448);
#199=VERTEX_POINT('',#453);
#200=VERTEX_POINT('',#455);
#201=VERTEX_POINT('',#457);
#202=VERTEX_POINT('',#466);
#203=VERTEX_POINT('',#471);
#204=VERTEX_POINT('',#473);
#205=VERTEX_POINT('',#478);
#206=VERTEX_POINT('',#488);
#207=VERTEX_POINT('',#493);
#208=VERTEX_POINT('',#495);
#209=VERTEX_POINT('',#500);
#210=VERTEX_POINT('',#509);
#211=VERTEX_POINT('',#511);
#212=LINE('',#387,#229);
#213=LINE('',#390,#230);
#214=LINE('',#392,#231);
#215=LINE('',#394,#232);
#216=LINE('',#396,#233);
#217=LINE('',#398,#234);
#218=LINE('',#400,#235);
#219=LINE('',#402,#236);
#220=LINE('',#404,#237);
#221=LINE('',#407,#238);
#222=LINE('',#409,#239);
#223=LINE('',#411,#240);
#224=LINE('',#413,#241);
#225=LINE('',#415,#242);
#226=LINE('',#417,#243);
#227=LINE('',#419,#244);
#228=LINE('',#456,#245);
#229=VECTOR('',#326,1.);
#230=VECTOR('',#327,1.);
#231=VECTOR('',#328,1.);
#232=VECTOR('',#329,1.);
#233=VECTOR('',#330,1.);
#234=VECTOR('',#331,1.);
#235=VECTOR('',#332,1.);
#236=VECTOR('',#333,1.);
#237=VECTOR('',#336,1.);
#238=VECTOR('',#337,1.);
#239=VECTOR('',#338,1.);
#240=VECTOR('',#339,1.);
#241=VECTOR('',#340,1.);
#242=VECTOR('',#341,1.);
#243=VECTOR('',#342,1.);
#244=VECTOR('',#343,1.);
#245=VECTOR('',#354,1.);
#246=EDGE_LOOP('',(#46,#47,#48,#49,#50,#51,#52,#53));
#247=EDGE_LOOP('',(#54,#55,#56,#57,#58,#59,#60,#61));
#248=EDGE_LOOP('',(#62,#63,#64,#65,#66,#67,#68,#69));
#249=EDGE_LOOP('',(#70,#71,#72,#73,#74,#75,#76,#77,#78,#79,#80,#81));
#250=EDGE_LOOP('',(#82,#83,#84,#85,#86,#87,#88,#89,#90,#91));
#251=EDGE_LOOP('',(#92,#93,#94,#95,#96,#97,#98,#99,#100,#101));
#252=EDGE_LOOP('',(#102,#103,#104,#105,#106,#107,#108,#109));
#253=EDGE_LOOP('',(#110,#111,#112,#113));
#254=EDGE_LOOP('',(#114,#115,#116,#117));
#255=EDGE_LOOP('',(#118,#119,#120,#121));
#256=EDGE_LOOP('',(#122,#123,#124,#125));
#257=EDGE_LOOP('',(#126,#127,#128,#129,#130,#131,#132,#133));
#258=FACE_BOUND('',#246,.T.);
#259=FACE_BOUND('',#247,.T.);
#260=FACE_BOUND('',#248,.T.);
#261=FACE_BOUND('',#249,.T.);
#262=FACE_BOUND('',#250,.T.);
#263=FACE_BOUND('',#251,.T.);
#264=FACE_BOUND('',#252,.T.);
#265=FACE_BOUND('',#253,.T.);
#266=FACE_BOUND('',#254,.T.);
#267=FACE_BOUND('',#255,.T.);
#268=FACE_BOUND('',#256,.T.);
#269=FACE_BOUND('',#257,.T.);
#270=PLANE('',#300);
#271=PLANE('',#301);
#272=PLANE('',#311);
#273=PLANE('',#312);
#274=PLANE('',#321);
#275=ADVANCED_FACE('',(#258),#270,.T.);
#276=ADVANCED_FACE('',(#259),#271,.T.);
#277=ADVANCED_FACE('',(#260),#39,.T.);
#278=ADVANCED_FACE('',(#261),#40,.T.);
#279=ADVANCED_FACE('',(#262),#41,.F.);
#280=ADVANCED_FACE('',(#263),#272,.F.);
#281=ADVANCED_FACE('',(#264),#273,.T.);
#282=ADVANCED_FACE('',(#265),#42,.F.);
#283=ADVANCED_FACE('',(#266),#43,.F.);
#284=ADVANCED_FACE('',(#267),#44,.T.);
#285=ADVANCED_FACE('',(#268),#45,.T.);
#286=ADVANCED_FACE('',(#269),#274,.F.);
#287=CLOSED_SHELL('',(#275,#276,#277,#278,#279,#280,#281,#282,#283,#284,
#285,#286));
#288=STYLED_ITEM('',(#289),#296);
#289=PRESENTATION_STYLE_ASSIGNMENT((#290));
#290=SURFACE_STYLE_USAGE(.BOTH.,#291);
#291=SURFACE_SIDE_STYLE('',(#292));
#292=SURFACE_STYLE_FILL_AREA(#293);
#293=FILL_AREA_STYLE('',(#294));
#294=FILL_AREA_STYLE_COLOUR('',#295);
#295=COLOUR_RGB('',0.717647058823529,0.717647058823529,0.717647058823529);
#296=MANIFOLD_SOLID_BREP('v1',#287);
#297=SHAPE_DEFINITION_REPRESENTATION(#533,#298);
#298=SHAPE_REPRESENTATION('v1',(#299),#528);
#299=AXIS2_PLACEMENT_3D('',#385,#322,#323);
#300=AXIS2_PLACEMENT_3D('',#386,#324,#325);
#301=AXIS2_PLACEMENT_3D('',#403,#334,#335);
#302=AXIS2_PLACEMENT_3D('',#420,#344,#345);
#303=AXIS2_PLACEMENT_3D('',#421,#346,#347);
#304=AXIS2_PLACEMENT_3D('',#433,#348,#349);
#305=AXIS2_PLACEMENT_3D('',#443,#350,#351);
#306=AXIS2_PLACEMENT_3D('',#454,#352,#353);
#307=AXIS2_PLACEMENT_3D('',#472,#355,#356);
#308=AXIS2_PLACEMENT_3D('',#483,#357,#358);
#309=AXIS2_PLACEMENT_3D('',#494,#359,#360);
#310=AXIS2_PLACEMENT_3D('',#510,#361,#362);
#311=AXIS2_PLACEMENT_3D('',#516,#363,#364);
#312=AXIS2_PLACEMENT_3D('',#517,#365,#366);
#313=AXIS2_PLACEMENT_3D('',#518,#367,#368);
#314=AXIS2_PLACEMENT_3D('',#519,#369,#370);
#315=AXIS2_PLACEMENT_3D('',#520,#371,#372);
#316=AXIS2_PLACEMENT_3D('',#521,#373,#374);
#317=AXIS2_PLACEMENT_3D('',#522,#375,#376);
#318=AXIS2_PLACEMENT_3D('',#523,#377,#378);
#319=AXIS2_PLACEMENT_3D('',#524,#379,#380);
#320=AXIS2_PLACEMENT_3D('',#525,#381,#382);
#321=AXIS2_PLACEMENT_3D('',#526,#383,#384);
#322=DIRECTION('',(0.,0.,1.));
#323=DIRECTION('',(1.,0.,0.));
#324=DIRECTION('',(0.996194698091746,-0.0871557427476581,0.));
#325=DIRECTION('',(0.0871557427476581,0.996194698091746,0.));
#326=DIRECTION('',(0.,0.,1.));
#327=DIRECTION('',(0.,0.,1.));
#328=DIRECTION('',(0.0871557427476581,0.996194698091746,0.));
#329=DIRECTION('',(0.,0.,-1.));
#330=DIRECTION('',(0.,0.,1.));
#331=DIRECTION('',(0.0871557427476581,0.996194698091746,0.));
#332=DIRECTION('',(0.,0.,1.));
#333=DIRECTION('',(0.0871557427476581,0.996194698091746,0.));
#334=DIRECTION('',(0.996194698091746,0.0871557427476583,0.));
#335=DIRECTION('',(-0.0871557427476583,0.996194698091746,0.));
#336=DIRECTION('',(0.,0.,1.));
#337=DIRECTION('',(0.,0.,-1.));
#338=DIRECTION('',(-0.0871557427476583,0.996194698091746,0.));
#339=DIRECTION('',(0.,0.,1.));
#340=DIRECTION('',(0.,0.,1.));
#341=DIRECTION('',(-0.0871557427476583,0.996194698091746,0.));
#342=DIRECTION('',(0.,0.,1.));
#343=DIRECTION('',(-0.0871557427476583,0.996194698091746,0.));
#344=DIRECTION('',(0.,0.,1.));
#345=DIRECTION('',(1.,0.,0.));
#346=DIRECTION('',(0.,0.,1.));
#347=DIRECTION('',(1.,0.,0.));
#348=DIRECTION('',(0.,0.,1.));
#349=DIRECTION('',(1.,0.,0.));
#350=DIRECTION('',(0.,0.,1.));
#351=DIRECTION('',(1.,1.22464679914735E-16,0.));
#352=DIRECTION('',(0.,0.,1.));
#353=DIRECTION('',(1.,0.,0.));
#354=DIRECTION('',(0.,0.,-1.));
#355=DIRECTION('',(0.,0.,1.));
#356=DIRECTION('',(1.,0.,0.));
#357=DIRECTION('',(0.,0.,1.));
#358=DIRECTION('',(1.,0.,0.));
#359=DIRECTION('',(0.,0.,1.));
#360=DIRECTION('',(1.,0.,0.));
#361=DIRECTION('',(0.,0.,1.));
#362=DIRECTION('',(1.,0.,0.));
#363=DIRECTION('',(0.,0.,1.));
#364=DIRECTION('',(0.,-1.,0.));
#365=DIRECTION('',(0.,0.,1.));
#366=DIRECTION('',(0.,-1.,0.));
#367=DIRECTION('',(0.,0.,1.));
#368=DIRECTION('',(1.,0.,0.));
#369=DIRECTION('',(0.,0.,1.));
#370=DIRECTION('',(1.,0.,0.));
#371=DIRECTION('',(0.,0.,1.));
#372=DIRECTION('',(1.,0.,0.));
#373=DIRECTION('',(0.,0.,1.));
#374=DIRECTION('',(1.,0.,0.));
#375=DIRECTION('',(0.,0.,-1.));
#376=DIRECTION('',(-1.,0.,0.));
#377=DIRECTION('',(0.,0.,-1.));
#378=DIRECTION('',(-1.,0.,0.));
#379=DIRECTION('',(0.,0.,-1.));
#380=DIRECTION('',(-1.,0.,0.));
#381=DIRECTION('',(0.,0.,-1.));
#382=DIRECTION('',(-1.,0.,0.));
#383=DIRECTION('',(0.,0.,1.));
#384=DIRECTION('',(0.,-1.,0.));
#385=CARTESIAN_POINT('',(0.,0.,0.));
#386=CARTESIAN_POINT('',(0.00102234854491228,0.0013591554188965,0.));
#387=CARTESIAN_POINT('',(0.00100656080308231,0.00117870070403741,0.));
#388=CARTESIAN_POINT('',(0.00100655932715302,0.00117869683409908,0.));
#389=CARTESIAN_POINT('',(0.00100656080308235,0.00117870070403738,0.0028));
#390=CARTESIAN_POINT('',(0.00100655996770374,0.00117869115561665,0.));
#391=CARTESIAN_POINT('',(0.00100655996770374,0.00117869115561665,-0.0004));
#392=CARTESIAN_POINT('',(0.00102234854491228,0.0013591554188965,-0.0004));
#393=CARTESIAN_POINT('',(0.0010571049489937,0.00175642441361204,-0.0004));
#394=CARTESIAN_POINT('',(0.00105710482613707,0.00175642448756342,-8.E-5));
#395=CARTESIAN_POINT('',(0.00105710500754629,0.00175642478933834,-9.9999999998864E-11));
#396=CARTESIAN_POINT('',(0.00105710512877791,0.00175642499034586,0.));
#397=CARTESIAN_POINT('',(0.00105710512877791,0.00175642499034586,0.002));
#398=CARTESIAN_POINT('',(0.00102234854491228,0.0013591554188965,0.002));
#399=CARTESIAN_POINT('',(0.00108577547131884,0.00208412850512687,0.002));
#400=CARTESIAN_POINT('',(0.00108577547131884,0.00208412850512687,0.002));
#401=CARTESIAN_POINT('',(0.00108577547131884,0.00208412850512687,0.0028));
#402=CARTESIAN_POINT('',(0.00102234854491228,0.0013591554188965,0.0028));
#403=CARTESIAN_POINT('',(0.00105156793956102,-0.00169313462798662,0.));
#404=CARTESIAN_POINT('',(0.00105710512877791,-0.00175642499034586,0.));
#405=CARTESIAN_POINT('',(0.00105710493354186,-0.00175642436404909,0.));
#406=CARTESIAN_POINT('',(0.0010571051287782,-0.00175642499034568,0.002));
#407=CARTESIAN_POINT('',(0.00105710500513801,-0.0017564235771354,0.));
#408=CARTESIAN_POINT('',(0.00105710500513801,-0.00175642357713533,-0.0004));
#409=CARTESIAN_POINT('',(0.00105156793956102,-0.00169313462798662,-0.0004));
#410=CARTESIAN_POINT('',(0.00100656076215118,-0.0011786964482905,-0.0004));
#411=CARTESIAN_POINT('',(0.00100656110584763,-0.00117869658885703,-9.9999999998864E-11));
#412=CARTESIAN_POINT('',(0.00100655986954365,-0.00117869961172179,-9.9999999998864E-11));
#413=CARTESIAN_POINT('',(0.00100656080308231,-0.00117870070403741,0.));
#414=CARTESIAN_POINT('',(0.00100656080308231,-0.00117870070403741,0.0028));
#415=CARTESIAN_POINT('',(0.00105156793956102,-0.00169313462798662,0.0028));
#416=CARTESIAN_POINT('',(0.00108577547131884,-0.00208412850512687,0.0028));
#417=CARTESIAN_POINT('',(0.00108577547131884,-0.00208412850512687,0.002));
#418=CARTESIAN_POINT('',(0.00108577547131884,-0.00208412850512687,0.002));
#419=CARTESIAN_POINT('',(0.00105156793956102,-0.00169313462798662,0.002));
#420=CARTESIAN_POINT('',(0.,0.,0.002));
#421=CARTESIAN_POINT('',(0.,0.,0.002));
#422=CARTESIAN_POINT('',(0.000835555555555555,0.00219643959934714,0.002));
#423=CARTESIAN_POINT('',(0.000835555555555555,-0.00219643959934714,0.002));
#424=CARTESIAN_POINT('',(0.00108577547131885,-0.00208412850512687,0.002));
#425=CARTESIAN_POINT('',(0.00100455720834301,-0.00212644105809342,0.002));
#426=CARTESIAN_POINT('',(0.000921150569755245,-0.00216387808950018,0.002));
#427=CARTESIAN_POINT('',(0.000835555555555555,-0.00219643959934714,0.002));
#428=CARTESIAN_POINT('',(0.000835555555555555,-0.00219643959934714,0.0028));
#429=CARTESIAN_POINT('',(0.000921150569755245,-0.00216387808950018,0.0028));
#430=CARTESIAN_POINT('',(0.00100455720834301,-0.00212644105809342,0.0028));
#431=CARTESIAN_POINT('',(0.00108577547131885,-0.00208412850512687,0.0028));
#432=CARTESIAN_POINT('',(0.000835555555555555,-0.00219643959934714,0.0028));
#433=CARTESIAN_POINT('',(0.,0.,0.0028));
#434=CARTESIAN_POINT('',(0.000835555555555555,0.00219643959934714,0.0028));
#435=CARTESIAN_POINT('',(0.00108577547131885,0.00208412850512687,0.0028));
#436=CARTESIAN_POINT('',(0.00100455720834301,0.00212644105809342,0.0028));
#437=CARTESIAN_POINT('',(0.000921150569755245,0.00216387808950018,0.0028));
#438=CARTESIAN_POINT('',(0.000835555555555555,0.00219643959934714,0.0028));
#439=CARTESIAN_POINT('',(0.000835555555555555,0.00219643959934714,0.002));
#440=CARTESIAN_POINT('',(0.000921150569755245,0.00216387808950018,0.002));
#441=CARTESIAN_POINT('',(0.00100455720834301,0.00212644105809342,0.002));
#442=CARTESIAN_POINT('',(0.00108577547131885,0.00208412850512687,0.002));
#443=CARTESIAN_POINT('',(0.,0.,0.));
#444=CARTESIAN_POINT('',(0.0010571051287785,0.0017564249903455,0.));
#445=CARTESIAN_POINT('',(0.000987407965161669,0.00179837225796333,0.));
#446=CARTESIAN_POINT('',(0.000915211309376663,0.0018361659857066,0.));
#447=CARTESIAN_POINT('',(0.000841025641025641,0.00186953894614084,0.));
#448=CARTESIAN_POINT('',(0.000841025380086077,0.00186953836474056,-2.49999999995192E-10));
#449=CARTESIAN_POINT('',(0.000841025641025641,0.00186953894614084,-2.49999999995192E-10));
#450=CARTESIAN_POINT('',(0.000841025641025641,0.00186953894614084,-0.000133333466666667));
#451=CARTESIAN_POINT('',(0.000841025641025641,0.00186953894614084,-0.000266666683333333));
#452=CARTESIAN_POINT('',(0.000841025641025641,0.00186953894614084,-0.0003999999));
#453=CARTESIAN_POINT('',(0.000841025432087037,0.00186953848110472,-0.0003999999));
#454=CARTESIAN_POINT('',(0.,0.,-0.0004));
#455=CARTESIAN_POINT('',(0.000841025400302743,-0.00186953841094541,-0.0004));
#456=CARTESIAN_POINT('',(0.000841025400302747,-0.00186953841094541,-8.E-5));
#457=CARTESIAN_POINT('',(0.000841025521131342,-0.00186953867833299,-2.49999999993848E-10));
#458=CARTESIAN_POINT('',(0.000841025641025648,-0.00186953894614084,0.));
#459=CARTESIAN_POINT('',(0.00091521130937646,-0.00183616598570669,0.));
#460=CARTESIAN_POINT('',(0.000987407965161266,-0.00179837225796354,0.));
#461=CARTESIAN_POINT('',(0.00105710512877792,-0.00175642499034585,0.));
#462=CARTESIAN_POINT('',(0.000961458914310412,-0.00181055508064196,0.002));
#463=CARTESIAN_POINT('',(0.000993796724172154,-0.00179338230575355,0.002));
#464=CARTESIAN_POINT('',(0.00102567879566152,-0.0017753389423214,0.002));
#465=CARTESIAN_POINT('',(0.0010571051287785,-0.0017564249903455,0.002));
#466=CARTESIAN_POINT('',(0.000961458173960248,-0.00181055368649903,0.002));
#467=CARTESIAN_POINT('',(0.000841025641025645,-0.00186953894614084,0.002));
#468=CARTESIAN_POINT('',(0.000881848851120938,-0.00185117432928705,0.002));
#469=CARTESIAN_POINT('',(0.000921993275549193,-0.00183151304078742,0.002));
#470=CARTESIAN_POINT('',(0.00096145891431041,-0.00181055508064197,0.002));
#471=CARTESIAN_POINT('',(0.000841025641025643,-0.00186953894614084,0.002));
#472=CARTESIAN_POINT('',(0.,0.,0.002));
#473=CARTESIAN_POINT('',(0.000841025641025643,0.00186953894614084,0.002));
#474=CARTESIAN_POINT('',(0.000961458914295955,0.00181055508064965,0.002));
#475=CARTESIAN_POINT('',(0.000921993275539392,0.00183151304079222,0.002));
#476=CARTESIAN_POINT('',(0.000881848851115955,0.00185117432928929,0.002));
#477=CARTESIAN_POINT('',(0.000841025641025645,0.00186953894614084,0.002));
#478=CARTESIAN_POINT('',(0.00096145891428146,0.00181055508065734,0.002));
#479=CARTESIAN_POINT('',(0.00105710512877791,0.00175642499034586,0.002));
#480=CARTESIAN_POINT('',(0.00102567879565174,0.00177533894232727,0.002));
#481=CARTESIAN_POINT('',(0.000993796724152924,0.00179338230576443,0.002));
#482=CARTESIAN_POINT('',(0.000961458914281464,0.00181055508065734,0.002));
#483=CARTESIAN_POINT('',(0.,0.,0.));
#484=CARTESIAN_POINT('',(0.00100656080308239,-0.00117870070403735,0.));
#485=CARTESIAN_POINT('',(0.00092774602230725,-0.00124600521039766,0.));
#486=CARTESIAN_POINT('',(0.000842160263106383,-0.00130537648113088,0.));
#487=CARTESIAN_POINT('',(0.000751515151515146,-0.0013556271526652,0.));
#488=CARTESIAN_POINT('',(0.000751513261571851,-0.00135562374014333,-2.49999999995192E-10));
#489=CARTESIAN_POINT('',(0.000751515151515146,-0.0013556271526652,-2.49999999995192E-10));
#490=CARTESIAN_POINT('',(0.000751515151515146,-0.0013556271526652,-0.000133333466666667));
#491=CARTESIAN_POINT('',(0.000751515151515146,-0.0013556271526652,-0.000266666683333333));
#492=CARTESIAN_POINT('',(0.000751515151515146,-0.0013556271526652,-0.0003999999));
#493=CARTESIAN_POINT('',(0.00075151363942495,-0.00135562442272286,-0.0003999999));
#494=CARTESIAN_POINT('',(0.,0.,-0.0004));
#495=CARTESIAN_POINT('',(0.00075151445533903,0.00135562589569,-0.0003999999));
#496=CARTESIAN_POINT('',(0.000751515151515153,0.0013556271526652,-0.0003999999));
#497=CARTESIAN_POINT('',(0.000751515151515153,0.0013556271526652,-0.000266666683333333));
#498=CARTESIAN_POINT('',(0.000751515151515153,0.0013556271526652,-0.000133333466666667));
#499=CARTESIAN_POINT('',(0.000751515151515153,0.0013556271526652,-2.49999999901718E-10));
#500=CARTESIAN_POINT('',(0.000751514281464453,0.00135562558135226,-2.49999999993848E-10));
#501=CARTESIAN_POINT('',(0.000751515151515153,0.0013556271526652,0.));
#502=CARTESIAN_POINT('',(0.000842160263106358,0.00130537648113089,0.));
#503=CARTESIAN_POINT('',(0.000927746022307196,0.0012460052103977,0.));
#504=CARTESIAN_POINT('',(0.00100656080308231,0.00117870070403741,0.));
#505=CARTESIAN_POINT('',(0.000751515151515152,0.0013556271526652,0.0028));
#506=CARTESIAN_POINT('',(0.000842465449446371,0.00130520729585151,0.0028));
#507=CARTESIAN_POINT('',(0.000927480666635448,0.00124623181297556,0.0028));
#508=CARTESIAN_POINT('',(0.00100656080308239,0.00117870070403735,0.0028));
#509=CARTESIAN_POINT('',(0.000751515151515152,0.0013556271526652,0.0028));
#510=CARTESIAN_POINT('',(0.,0.,0.0028));
#511=CARTESIAN_POINT('',(0.000751515151515151,-0.0013556271526652,0.0028));
#512=CARTESIAN_POINT('',(0.00100656080308231,-0.00117870070403741,0.0028));
#513=CARTESIAN_POINT('',(0.000927480666635397,-0.0012462318129756,0.0028));
#514=CARTESIAN_POINT('',(0.000842465449446343,-0.00130520729585153,0.0028));
#515=CARTESIAN_POINT('',(0.00075151515151515,-0.0013556271526652,0.0028));
#516=CARTESIAN_POINT('',(-0.000725,0.,0.002));
#517=CARTESIAN_POINT('',(-0.000725,0.,0.0028));
#518=CARTESIAN_POINT('',(2.63378258198201E-6,3.83345867852177E-6,-8.E-5));
#519=CARTESIAN_POINT('',(2.63378258198201E-6,3.83345867852177E-6,-0.0004));
#520=CARTESIAN_POINT('',(2.66822288105405E-6,-3.8095672705166E-6,-8.E-5));
#521=CARTESIAN_POINT('',(2.66822288105405E-6,-3.8095672705166E-6,-0.0004));
#522=CARTESIAN_POINT('',(9.98502560876262E-7,-1.91987121949712E-6,-8.E-5));
#523=CARTESIAN_POINT('',(9.98502560876262E-7,-1.91987121949712E-6,-0.0004));
#524=CARTESIAN_POINT('',(1.00873389799049E-6,1.91451528727595E-6,-8.E-5));
#525=CARTESIAN_POINT('',(1.00873389799049E-6,1.91451528727595E-6,-0.0004));
#526=CARTESIAN_POINT('',(-0.000575,0.,-0.0004));
#527=MECHANICAL_DESIGN_GEOMETRIC_PRESENTATION_REPRESENTATION('',(#288),
#528);
#528=(
GEOMETRIC_REPRESENTATION_CONTEXT(3)
GLOBAL_UNCERTAINTY_ASSIGNED_CONTEXT((#529))
GLOBAL_UNIT_ASSIGNED_CONTEXT((#532,#531,#530))
REPRESENTATION_CONTEXT('v1','TOP_LEVEL_ASSEMBLY_PART')
);
#529=UNCERTAINTY_MEASURE_WITH_UNIT(LENGTH_MEASURE(2.E-5),#532,
'DISTANCE_ACCURACY_VALUE','Maximum Tolerance applied to model');
#530=(
NAMED_UNIT(*)
SI_UNIT($,.STERADIAN.)
SOLID_ANGLE_UNIT()
);
#531=(
NAMED_UNIT(*)
PLANE_ANGLE_UNIT()
SI_UNIT($,.RADIAN.)
);
#532=(
LENGTH_UNIT()
NAMED_UNIT(*)
SI_UNIT($,.METRE.)
);
#533=PRODUCT_DEFINITION_SHAPE('','',#534);
#534=PRODUCT_DEFINITION('','',#536,#535);
#535=PRODUCT_DEFINITION_CONTEXT('',#542,'design');
#536=PRODUCT_DEFINITION_FORMATION_WITH_SPECIFIED_SOURCE('','',#538,
 .NOT_KNOWN.);
#537=PRODUCT_RELATED_PRODUCT_CATEGORY('','',(#538));
#538=PRODUCT('v1','v1','v1',(#540));
#539=PRODUCT_CATEGORY('','');
#540=PRODUCT_CONTEXT('',#542,'mechanical');
#541=APPLICATION_PROTOCOL_DEFINITION('international standard',
'ap242_managed_model_based_3d_engineering',2020,#542);
#542=APPLICATION_CONTEXT('managed model based 3d engineering');
ENDSEC;
END-ISO-10303-21;
